<svg xmlns="http://www.w3.org/2000/svg" width="105" height="118" viewBox="0 0 105 118">
  <g id="Group_9" data-name="Group 9" transform="translate(-5126 -899)">
    <g id="Polygon_1" data-name="Polygon 1" transform="translate(5126 899)" fill="none">
      <path d="M52.5,0,105,41.252,84.947,108H20.053L0,41.252Z" stroke="none"/>
      <path d="M 52.5 3.815330505371094 L 3.461555480957031 42.34771728515625 L 22.28437805175781 105 L 82.71562194824219 105 L 101.538444519043 42.34771728515625 L 52.5 3.815330505371094 M 52.5 0 L 105 41.25233459472656 L 84.94678497314453 108 L 20.05321502685547 108 L 0 41.25233459472656 L 52.5 0 Z" stroke="none" fill="#5C5CC3"/>
    </g>
    <g id="Polygon_2" data-name="Polygon 2" transform="translate(5231 1017) rotate(180)" fill="none">
      <path d="M52.5,0,105,41.252,84.947,108H20.053L0,41.252Z" stroke="none"/>
      <path d="M 52.5 3.815330505371094 L 3.461555480957031 42.34771728515625 L 22.28437805175781 105 L 82.71562194824219 105 L 101.538444519043 42.34771728515625 L 52.5 3.815330505371094 M 52.5 0 L 105 41.25233459472656 L 84.94678497314453 108 L 20.05321502685547 108 L 0 41.25233459472656 L 52.5 0 Z" stroke="none" fill="#5C5CC3"/>
    </g>
    <circle id="Ellipse_3" data-name="Ellipse 3" cx="27" cy="27" r="27" transform="translate(5152 931)" fill="#5C5CC3"/>
  </g>
</svg>
